# xmcd
#
# Track frame offsets:
#	194
#	10301
#	23355
#	37826
#	52094
#	64164
#	76516
#	94732
#	108737
#	120471
#	132061
#	142015
#	152734
#	164393
#
# Disc length: 2439 seconds
#
# Revision: 1
# Processed by: cddbd v1.5.2PL0 Copyright (c) Steve Scherf et al.
# Submitted via: EasyCDDAExtractor 11.1.0.1
#
DISCID=a909850e
DTITLE=Judy Austin - Country Radio
DYEAR=1996
DGENRE=Country
TTITLE0=Love Crisis
TTITLE1=World Of Fantasy
TTITLE2=Second Fiddle
TTITLE3=Precious Memories
TTITLE4=Some Loves Are Better Left Undone
TTITLE5=Through The Years
TTITLE6=Johnny
TTITLE7=Country Radio
TTITLE8=Cold Cold Heart
TTITLE9=Dahlonega
TTITLE10=Fishing Fever
TTITLE11=Please Take This Love From My Heart
TTITLE12=Overcome With Memories Of You
TTITLE13=Sweet Hour Of Prayer
EXTD=
EXTT0=
EXTT1=
EXTT2=
EXTT3=
EXTT4=
EXTT5=
EXTT6=
EXTT7=
EXTT8=
EXTT9=
EXTT10=
EXTT11=
EXTT12=
EXTT13=
PLAYORDER=
